<?xml version="1.0" encoding="UTF-8" standalone="no"?>
<!DOCTYPE svg PUBLIC "-//W3C//DTD SVG 1.1//EN"
 "http://www.w3.org/Graphics/SVG/1.1/DTD/svg11.dtd">
<!-- Generated by graphviz version 2.40.1 (20161225.0304)
 -->
<!-- Title: dependencies Pages: 1 -->
<svg width="504pt" height="211pt"
 viewBox="0.00 0.00 504.00 211.00" xmlns="http://www.w3.org/2000/svg" xmlns:xlink="http://www.w3.org/1999/xlink">
<g id="graph0" class="graph" transform="scale(1 1) rotate(0) translate(4 207)">
<title>dependencies</title>
<polygon fill="#ffffff" stroke="transparent" points="-4,4 -4,-207 500,-207 500,4 -4,4"/>
<text text-anchor="start" x="227.0091" y="-42.4" font-family="sans-serif" font-weight="bold" font-size="14.00" fill="#000000">Legend</text>
<polygon fill="#ffffb3" stroke="transparent" points="14,-10 14,-30 34,-30 34,-10 14,-10"/>
<text text-anchor="start" x="37.629" y="-15.4" font-family="sans-serif" font-size="14.00" fill="#000000"> &#160;Declarations</text>
<polygon fill="#8dd3c7" stroke="transparent" points="127,-10 127,-30 147,-30 147,-10 127,-10"/>
<text text-anchor="start" x="150.7251" y="-15.4" font-family="sans-serif" font-size="14.00" fill="#000000"> &#160;Module</text>
<polygon fill="#80b1d3" stroke="transparent" points="213,-10 213,-30 233,-30 233,-10 213,-10"/>
<text text-anchor="start" x="236.7812" y="-15.4" font-family="sans-serif" font-size="14.00" fill="#000000"> &#160;Bootstrap</text>
<polygon fill="#fdb462" stroke="transparent" points="310,-10 310,-30 330,-30 330,-10 310,-10"/>
<text text-anchor="start" x="333.6732" y="-15.4" font-family="sans-serif" font-size="14.00" fill="#000000"> &#160;Providers</text>
<polygon fill="#fb8072" stroke="transparent" points="406,-10 406,-30 426,-30 426,-10 406,-10"/>
<text text-anchor="start" x="429.7258" y="-15.4" font-family="sans-serif" font-size="14.00" fill="#000000"> &#160;Exports</text>
<g id="clust1" class="cluster">
<title>cluster_MapModule</title>
<polygon fill="none" stroke="#000000" stroke-dasharray="1,5" points="88,-70 88,-195 408,-195 408,-70 88,-70"/>
</g>
<g id="clust2" class="cluster">
<title>cluster_MapModule_declarations</title>
<polygon fill="none" stroke="#000000" points="250,-78 250,-130 400,-130 400,-78 250,-78"/>
</g>
<g id="clust4" class="cluster">
<title>cluster_MapModule_imports</title>
<polygon fill="none" stroke="#000000" points="96,-78 96,-130 242,-130 242,-78 96,-78"/>
</g>
<!-- DataMapComponent -->
<g id="node1" class="node">
<title>DataMapComponent</title>
<polygon fill="#ffffb3" stroke="#000000" points="391.9187,-122 258.0813,-122 258.0813,-86 391.9187,-86 391.9187,-122"/>
<text text-anchor="middle" x="325" y="-99.8" font-family="Times,serif" font-size="14.00" fill="#000000">DataMapComponent</text>
</g>
<!-- MapModule -->
<g id="node2" class="node">
<title>MapModule</title>
<polygon fill="#8dd3c7" stroke="#000000" points="289.7093,-187 286.7093,-191 265.7093,-191 262.7093,-187 204.2907,-187 204.2907,-151 289.7093,-151 289.7093,-187"/>
<text text-anchor="middle" x="247" y="-164.8" font-family="Times,serif" font-size="14.00" fill="#000000">MapModule</text>
</g>
<!-- DataMapComponent&#45;&gt;MapModule -->
<g id="edge1" class="edge">
<title>DataMapComponent&#45;&gt;MapModule</title>
<path fill="none" stroke="#000000" d="M273.9478,-122.1061C273.9478,-122.1061 273.9478,-140.991 273.9478,-140.991"/>
<polygon fill="#000000" stroke="#000000" points="270.4478,-140.9909 273.9478,-150.991 277.4478,-140.991 270.4478,-140.9909"/>
</g>
<!-- MapRoutingModule -->
<g id="node3" class="node">
<title>MapRoutingModule</title>
<polygon fill="#8dd3c7" stroke="#000000" points="234.3272,-122 231.3272,-126 210.3272,-126 207.3272,-122 103.6728,-122 103.6728,-86 234.3272,-86 234.3272,-122"/>
<text text-anchor="middle" x="169" y="-99.8" font-family="Times,serif" font-size="14.00" fill="#000000">MapRoutingModule</text>
</g>
<!-- MapRoutingModule&#45;&gt;MapModule -->
<g id="edge2" class="edge">
<title>MapRoutingModule&#45;&gt;MapModule</title>
<path fill="none" stroke="#000000" d="M219.2795,-122.1061C219.2795,-122.1061 219.2795,-140.991 219.2795,-140.991"/>
<polygon fill="#000000" stroke="#000000" points="215.7795,-140.9909 219.2795,-150.991 222.7795,-140.991 215.7795,-140.9909"/>
</g>
</g>
</svg>
