<?xml version="1.0" encoding="UTF-8" standalone="no"?>
<!DOCTYPE svg PUBLIC "-//W3C//DTD SVG 1.1//EN"
 "http://www.w3.org/Graphics/SVG/1.1/DTD/svg11.dtd">
<!-- Generated by graphviz version 2.40.1 (20161225.0304)
 -->
<!-- Title: dependencies Pages: 1 -->
<svg width="843pt" height="284pt"
 viewBox="0.00 0.00 843.00 284.00" xmlns="http://www.w3.org/2000/svg" xmlns:xlink="http://www.w3.org/1999/xlink">
<g id="graph0" class="graph" transform="scale(1 1) rotate(0) translate(4 280)">
<title>dependencies</title>
<polygon fill="#ffffff" stroke="transparent" points="-4,4 -4,-280 839,-280 839,4 -4,4"/>
<text text-anchor="start" x="396.5091" y="-42.4" font-family="sans-serif" font-weight="bold" font-size="14.00" fill="#000000">Legend</text>
<polygon fill="#ffffb3" stroke="transparent" points="183.5,-10 183.5,-30 203.5,-30 203.5,-10 183.5,-10"/>
<text text-anchor="start" x="207.129" y="-15.4" font-family="sans-serif" font-size="14.00" fill="#000000"> &#160;Declarations</text>
<polygon fill="#8dd3c7" stroke="transparent" points="296.5,-10 296.5,-30 316.5,-30 316.5,-10 296.5,-10"/>
<text text-anchor="start" x="320.2251" y="-15.4" font-family="sans-serif" font-size="14.00" fill="#000000"> &#160;Module</text>
<polygon fill="#80b1d3" stroke="transparent" points="382.5,-10 382.5,-30 402.5,-30 402.5,-10 382.5,-10"/>
<text text-anchor="start" x="406.2812" y="-15.4" font-family="sans-serif" font-size="14.00" fill="#000000"> &#160;Bootstrap</text>
<polygon fill="#fdb462" stroke="transparent" points="479.5,-10 479.5,-30 499.5,-30 499.5,-10 479.5,-10"/>
<text text-anchor="start" x="503.1732" y="-15.4" font-family="sans-serif" font-size="14.00" fill="#000000"> &#160;Providers</text>
<polygon fill="#fb8072" stroke="transparent" points="575.5,-10 575.5,-30 595.5,-30 595.5,-10 575.5,-10"/>
<text text-anchor="start" x="599.2258" y="-15.4" font-family="sans-serif" font-size="14.00" fill="#000000"> &#160;Exports</text>
<g id="clust1" class="cluster">
<title>cluster_ChartsModule</title>
<polygon fill="none" stroke="#000000" stroke-dasharray="1,5" points="8,-70 8,-268 827,-268 827,-70 8,-70"/>
</g>
<g id="clust2" class="cluster">
<title>cluster_ChartsModule_declarations</title>
<polygon fill="none" stroke="#000000" points="182,-78 182,-130 819,-130 819,-78 182,-78"/>
</g>
<g id="clust7" class="cluster">
<title>cluster_ChartsModule_imports</title>
<polygon fill="none" stroke="#000000" points="16,-78 16,-130 174,-130 174,-78 16,-78"/>
</g>
<g id="clust8" class="cluster">
<title>cluster_ChartsModule_exports</title>
<polygon fill="none" stroke="#000000" points="341,-208 341,-260 515,-260 515,-208 341,-208"/>
</g>
<!-- LinearGaugeComponent -->
<g id="node1" class="node">
<title>LinearGaugeComponent</title>
<polygon fill="#ffffb3" stroke="#000000" points="811.4017,-122 656.5983,-122 656.5983,-86 811.4017,-86 811.4017,-122"/>
<text text-anchor="middle" x="734" y="-99.8" font-family="Times,serif" font-size="14.00" fill="#000000">LinearGaugeComponent</text>
</g>
<!-- ChartsModule -->
<g id="node5" class="node">
<title>ChartsModule</title>
<polygon fill="#8dd3c7" stroke="#000000" points="476.0968,-187 473.0968,-191 452.0968,-191 449.0968,-187 379.9032,-187 379.9032,-151 476.0968,-151 476.0968,-187"/>
<text text-anchor="middle" x="428" y="-164.8" font-family="Times,serif" font-size="14.00" fill="#000000">ChartsModule</text>
</g>
<!-- LinearGaugeComponent&#45;&gt;ChartsModule -->
<g id="edge1" class="edge">
<title>LinearGaugeComponent&#45;&gt;ChartsModule</title>
<path fill="none" stroke="#000000" d="M734,-122.2843C734,-143.3211 734,-175 734,-175 734,-175 486.1491,-175 486.1491,-175"/>
<polygon fill="#000000" stroke="#000000" points="486.1492,-171.5001 476.1491,-175 486.1491,-178.5001 486.1492,-171.5001"/>
</g>
<!-- PieChartComponent -->
<g id="node2" class="node">
<title>PieChartComponent</title>
<polygon fill="#ffffb3" stroke="#000000" points="639.323,-122 508.677,-122 508.677,-86 639.323,-86 639.323,-122"/>
<text text-anchor="middle" x="574" y="-99.8" font-family="Times,serif" font-size="14.00" fill="#000000">PieChartComponent</text>
</g>
<!-- PieChartComponent&#45;&gt;ChartsModule -->
<g id="edge2" class="edge">
<title>PieChartComponent&#45;&gt;ChartsModule</title>
<path fill="none" stroke="#000000" d="M574,-122.0225C574,-139.3734 574,-163 574,-163 574,-163 486.2105,-163 486.2105,-163"/>
<polygon fill="#000000" stroke="#000000" points="486.2105,-159.5001 476.2105,-163 486.2105,-166.5001 486.2105,-159.5001"/>
</g>
<!-- PieGridComponent -->
<g id="node3" class="node">
<title>PieGridComponent</title>
<polygon fill="#ffffb3" stroke="#000000" points="490.3781,-122 365.6219,-122 365.6219,-86 490.3781,-86 490.3781,-122"/>
<text text-anchor="middle" x="428" y="-99.8" font-family="Times,serif" font-size="14.00" fill="#000000">PieGridComponent</text>
</g>
<!-- PieGridComponent&#45;&gt;ChartsModule -->
<g id="edge3" class="edge">
<title>PieGridComponent&#45;&gt;ChartsModule</title>
<path fill="none" stroke="#000000" d="M428,-122.1061C428,-122.1061 428,-140.991 428,-140.991"/>
<polygon fill="#000000" stroke="#000000" points="424.5001,-140.9909 428,-150.991 431.5001,-140.991 424.5001,-140.9909"/>
</g>
<!-- VerticalChartComponent -->
<g id="node4" class="node">
<title>VerticalChartComponent</title>
<polygon fill="#ffffb3" stroke="#000000" points="347.5183,-122 190.4817,-122 190.4817,-86 347.5183,-86 347.5183,-122"/>
<text text-anchor="middle" x="269" y="-99.8" font-family="Times,serif" font-size="14.00" fill="#000000">VerticalChartComponent</text>
</g>
<!-- VerticalChartComponent&#45;&gt;ChartsModule -->
<g id="edge4" class="edge">
<title>VerticalChartComponent&#45;&gt;ChartsModule</title>
<path fill="none" stroke="#000000" d="M269,-122.0225C269,-139.3734 269,-163 269,-163 269,-163 369.8633,-163 369.8633,-163"/>
<polygon fill="#000000" stroke="#000000" points="369.8633,-166.5001 379.8633,-163 369.8632,-159.5001 369.8633,-166.5001"/>
</g>
<!-- LinearGaugeComponent  -->
<g id="node7" class="node">
<title>LinearGaugeComponent </title>
<polygon fill="#fb8072" stroke="#000000" points="506.9012,-252 349.0988,-252 349.0988,-216 506.9012,-216 506.9012,-252"/>
<text text-anchor="middle" x="428" y="-229.8" font-family="Times,serif" font-size="14.00" fill="#000000">LinearGaugeComponent </text>
</g>
<!-- ChartsModule&#45;&gt;LinearGaugeComponent  -->
<g id="edge6" class="edge">
<title>ChartsModule&#45;&gt;LinearGaugeComponent </title>
<path fill="none" stroke="#000000" stroke-dasharray="5,2" d="M428,-187.1061C428,-187.1061 428,-205.991 428,-205.991"/>
<polygon fill="#000000" stroke="#000000" points="424.5001,-205.9909 428,-215.991 431.5001,-205.991 424.5001,-205.9909"/>
</g>
<!-- ChartsRoutingModule -->
<g id="node6" class="node">
<title>ChartsRoutingModule</title>
<polygon fill="#8dd3c7" stroke="#000000" points="165.7148,-122 162.7148,-126 141.7148,-126 138.7148,-122 24.2852,-122 24.2852,-86 165.7148,-86 165.7148,-122"/>
<text text-anchor="middle" x="95" y="-99.8" font-family="Times,serif" font-size="14.00" fill="#000000">ChartsRoutingModule</text>
</g>
<!-- ChartsRoutingModule&#45;&gt;ChartsModule -->
<g id="edge5" class="edge">
<title>ChartsRoutingModule&#45;&gt;ChartsModule</title>
<path fill="none" stroke="#000000" d="M95,-122.2843C95,-143.3211 95,-175 95,-175 95,-175 369.9346,-175 369.9346,-175"/>
<polygon fill="#000000" stroke="#000000" points="369.9346,-178.5001 379.9346,-175 369.9345,-171.5001 369.9346,-178.5001"/>
</g>
</g>
</svg>
