<?xml version="1.0" encoding="UTF-8" standalone="no"?>
<!DOCTYPE svg PUBLIC "-//W3C//DTD SVG 1.1//EN"
 "http://www.w3.org/Graphics/SVG/1.1/DTD/svg11.dtd">
<!-- Generated by graphviz version 2.40.1 (20161225.0304)
 -->
<!-- Title: dependencies Pages: 1 -->
<svg width="580pt" height="284pt"
 viewBox="0.00 0.00 580.00 284.00" xmlns="http://www.w3.org/2000/svg" xmlns:xlink="http://www.w3.org/1999/xlink">
<g id="graph0" class="graph" transform="scale(1 1) rotate(0) translate(4 280)">
<title>dependencies</title>
<polygon fill="#ffffff" stroke="transparent" points="-4,4 -4,-280 576,-280 576,4 -4,4"/>
<text text-anchor="start" x="265.0091" y="-42.4" font-family="sans-serif" font-weight="bold" font-size="14.00" fill="#000000">Legend</text>
<polygon fill="#ffffb3" stroke="transparent" points="52,-10 52,-30 72,-30 72,-10 52,-10"/>
<text text-anchor="start" x="75.629" y="-15.4" font-family="sans-serif" font-size="14.00" fill="#000000"> &#160;Declarations</text>
<polygon fill="#8dd3c7" stroke="transparent" points="165,-10 165,-30 185,-30 185,-10 165,-10"/>
<text text-anchor="start" x="188.7251" y="-15.4" font-family="sans-serif" font-size="14.00" fill="#000000"> &#160;Module</text>
<polygon fill="#80b1d3" stroke="transparent" points="251,-10 251,-30 271,-30 271,-10 251,-10"/>
<text text-anchor="start" x="274.7812" y="-15.4" font-family="sans-serif" font-size="14.00" fill="#000000"> &#160;Bootstrap</text>
<polygon fill="#fdb462" stroke="transparent" points="348,-10 348,-30 368,-30 368,-10 348,-10"/>
<text text-anchor="start" x="371.6732" y="-15.4" font-family="sans-serif" font-size="14.00" fill="#000000"> &#160;Providers</text>
<polygon fill="#fb8072" stroke="transparent" points="444,-10 444,-30 464,-30 464,-10 444,-10"/>
<text text-anchor="start" x="467.7258" y="-15.4" font-family="sans-serif" font-size="14.00" fill="#000000"> &#160;Exports</text>
<g id="clust1" class="cluster">
<title>cluster_AppModule</title>
<polygon fill="none" stroke="#000000" stroke-dasharray="1,5" points="8,-70 8,-268 564,-268 564,-70 8,-70"/>
</g>
<g id="clust2" class="cluster">
<title>cluster_AppModule_declarations</title>
<polygon fill="none" stroke="#000000" points="282,-78 282,-130 556,-130 556,-78 282,-78"/>
</g>
<g id="clust5" class="cluster">
<title>cluster_AppModule_imports</title>
<polygon fill="none" stroke="#000000" points="16,-78 16,-130 274,-130 274,-78 16,-78"/>
</g>
<g id="clust7" class="cluster">
<title>cluster_AppModule_bootstrap</title>
<polygon fill="none" stroke="#000000" points="217,-208 217,-260 341,-260 341,-208 217,-208"/>
</g>
<!-- AppComponent -->
<g id="node1" class="node">
<title>AppComponent</title>
<polygon fill="#ffffb3" stroke="#000000" points="547.9399,-122 442.0601,-122 442.0601,-86 547.9399,-86 547.9399,-122"/>
<text text-anchor="middle" x="495" y="-99.8" font-family="Times,serif" font-size="14.00" fill="#000000">AppComponent</text>
</g>
<!-- AppModule -->
<g id="node3" class="node">
<title>AppModule</title>
<polygon fill="#8dd3c7" stroke="#000000" points="320.6571,-187 317.6571,-191 296.6571,-191 293.6571,-187 237.3429,-187 237.3429,-151 320.6571,-151 320.6571,-187"/>
<text text-anchor="middle" x="279" y="-164.8" font-family="Times,serif" font-size="14.00" fill="#000000">AppModule</text>
</g>
<!-- AppComponent&#45;&gt;AppModule -->
<g id="edge1" class="edge">
<title>AppComponent&#45;&gt;AppModule</title>
<path fill="none" stroke="#000000" d="M495,-122.1061C495,-141.3391 495,-169 495,-169 495,-169 330.9031,-169 330.9031,-169"/>
<polygon fill="#000000" stroke="#000000" points="330.9031,-165.5001 320.9031,-169 330.9031,-172.5001 330.9031,-165.5001"/>
</g>
<!-- MainNavComponent -->
<g id="node2" class="node">
<title>MainNavComponent</title>
<polygon fill="#ffffb3" stroke="#000000" points="424.2036,-122 289.7964,-122 289.7964,-86 424.2036,-86 424.2036,-122"/>
<text text-anchor="middle" x="357" y="-99.8" font-family="Times,serif" font-size="14.00" fill="#000000">MainNavComponent</text>
</g>
<!-- MainNavComponent&#45;&gt;AppModule -->
<g id="edge2" class="edge">
<title>MainNavComponent&#45;&gt;AppModule</title>
<path fill="none" stroke="#000000" d="M305.3633,-122.1061C305.3633,-122.1061 305.3633,-140.991 305.3633,-140.991"/>
<polygon fill="#000000" stroke="#000000" points="301.8633,-140.9909 305.3633,-150.991 308.8633,-140.991 301.8633,-140.9909"/>
</g>
<!-- AppComponent  -->
<g id="node6" class="node">
<title>AppComponent </title>
<polygon fill="#80b1d3" stroke="#000000" points="333.439,-252 224.561,-252 224.561,-216 333.439,-216 333.439,-252"/>
<text text-anchor="middle" x="279" y="-229.8" font-family="Times,serif" font-size="14.00" fill="#000000">AppComponent </text>
</g>
<!-- AppModule&#45;&gt;AppComponent  -->
<g id="edge5" class="edge">
<title>AppModule&#45;&gt;AppComponent </title>
<path fill="none" stroke="#000000" stroke-dasharray="1,5" d="M279,-187.1061C279,-187.1061 279,-205.991 279,-205.991"/>
<polygon fill="#000000" stroke="#000000" points="275.5001,-205.9909 279,-215.991 282.5001,-205.991 275.5001,-205.9909"/>
</g>
<!-- AppRoutingModule -->
<g id="node4" class="node">
<title>AppRoutingModule</title>
<polygon fill="#8dd3c7" stroke="#000000" points="266.2744,-122 263.2744,-126 242.2744,-126 239.2744,-122 137.7256,-122 137.7256,-86 266.2744,-86 266.2744,-122"/>
<text text-anchor="middle" x="202" y="-99.8" font-family="Times,serif" font-size="14.00" fill="#000000">AppRoutingModule</text>
</g>
<!-- AppRoutingModule&#45;&gt;AppModule -->
<g id="edge3" class="edge">
<title>AppRoutingModule&#45;&gt;AppModule</title>
<path fill="none" stroke="#000000" d="M251.7795,-122.1061C251.7795,-122.1061 251.7795,-140.991 251.7795,-140.991"/>
<polygon fill="#000000" stroke="#000000" points="248.2795,-140.9909 251.7795,-150.991 255.2795,-140.991 248.2795,-140.9909"/>
</g>
<!-- ChartsModule -->
<g id="node5" class="node">
<title>ChartsModule</title>
<polygon fill="#8dd3c7" stroke="#000000" points="120.0968,-122 117.0968,-126 96.0968,-126 93.0968,-122 23.9032,-122 23.9032,-86 120.0968,-86 120.0968,-122"/>
<text text-anchor="middle" x="72" y="-99.8" font-family="Times,serif" font-size="14.00" fill="#000000">ChartsModule</text>
</g>
<!-- ChartsModule&#45;&gt;AppModule -->
<g id="edge4" class="edge">
<title>ChartsModule&#45;&gt;AppModule</title>
<path fill="none" stroke="#000000" d="M72,-122.1061C72,-141.3391 72,-169 72,-169 72,-169 227.1105,-169 227.1105,-169"/>
<polygon fill="#000000" stroke="#000000" points="227.1105,-172.5001 237.1105,-169 227.1104,-165.5001 227.1105,-172.5001"/>
</g>
</g>
</svg>
