<?xml version="1.0" encoding="UTF-8" standalone="no"?>
<!DOCTYPE svg PUBLIC "-//W3C//DTD SVG 1.1//EN"
 "http://www.w3.org/Graphics/SVG/1.1/DTD/svg11.dtd">
<!-- Generated by graphviz version 2.40.1 (20161225.0304)
 -->
<!-- Title: dependencies Pages: 1 -->
<svg width="504pt" height="211pt"
 viewBox="0.00 0.00 504.00 211.00" xmlns="http://www.w3.org/2000/svg" xmlns:xlink="http://www.w3.org/1999/xlink">
<g id="graph0" class="graph" transform="scale(1 1) rotate(0) translate(4 207)">
<title>dependencies</title>
<polygon fill="#ffffff" stroke="transparent" points="-4,4 -4,-207 500,-207 500,4 -4,4"/>
<text text-anchor="start" x="227.0091" y="-42.4" font-family="sans-serif" font-weight="bold" font-size="14.00" fill="#000000">Legend</text>
<polygon fill="#ffffb3" stroke="transparent" points="14,-10 14,-30 34,-30 34,-10 14,-10"/>
<text text-anchor="start" x="37.629" y="-15.4" font-family="sans-serif" font-size="14.00" fill="#000000"> &#160;Declarations</text>
<polygon fill="#8dd3c7" stroke="transparent" points="127,-10 127,-30 147,-30 147,-10 127,-10"/>
<text text-anchor="start" x="150.7251" y="-15.4" font-family="sans-serif" font-size="14.00" fill="#000000"> &#160;Module</text>
<polygon fill="#80b1d3" stroke="transparent" points="213,-10 213,-30 233,-30 233,-10 213,-10"/>
<text text-anchor="start" x="236.7812" y="-15.4" font-family="sans-serif" font-size="14.00" fill="#000000"> &#160;Bootstrap</text>
<polygon fill="#fdb462" stroke="transparent" points="310,-10 310,-30 330,-30 330,-10 310,-10"/>
<text text-anchor="start" x="333.6732" y="-15.4" font-family="sans-serif" font-size="14.00" fill="#000000"> &#160;Providers</text>
<polygon fill="#fb8072" stroke="transparent" points="406,-10 406,-30 426,-30 426,-10 406,-10"/>
<text text-anchor="start" x="429.7258" y="-15.4" font-family="sans-serif" font-size="14.00" fill="#000000"> &#160;Exports</text>
<g id="clust1" class="cluster">
<title>cluster_TableModule</title>
<polygon fill="none" stroke="#000000" stroke-dasharray="1,5" points="82,-70 82,-195 414,-195 414,-70 82,-70"/>
</g>
<g id="clust2" class="cluster">
<title>cluster_TableModule_declarations</title>
<polygon fill="none" stroke="#000000" points="250,-78 250,-130 406,-130 406,-78 250,-78"/>
</g>
<g id="clust4" class="cluster">
<title>cluster_TableModule_imports</title>
<polygon fill="none" stroke="#000000" points="90,-78 90,-130 242,-130 242,-78 90,-78"/>
</g>
<!-- DataTableComponent -->
<g id="node1" class="node">
<title>DataTableComponent</title>
<polygon fill="#ffffb3" stroke="#000000" points="397.6317,-122 258.3683,-122 258.3683,-86 397.6317,-86 397.6317,-122"/>
<text text-anchor="middle" x="328" y="-99.8" font-family="Times,serif" font-size="14.00" fill="#000000">DataTableComponent</text>
</g>
<!-- TableModule -->
<g id="node2" class="node">
<title>TableModule</title>
<polygon fill="#8dd3c7" stroke="#000000" points="292.9232,-187 289.9232,-191 268.9232,-191 265.9232,-187 201.0768,-187 201.0768,-151 292.9232,-151 292.9232,-187"/>
<text text-anchor="middle" x="247" y="-164.8" font-family="Times,serif" font-size="14.00" fill="#000000">TableModule</text>
</g>
<!-- DataTableComponent&#45;&gt;TableModule -->
<g id="edge1" class="edge">
<title>DataTableComponent&#45;&gt;TableModule</title>
<path fill="none" stroke="#000000" d="M275.4478,-122.1061C275.4478,-122.1061 275.4478,-140.991 275.4478,-140.991"/>
<polygon fill="#000000" stroke="#000000" points="271.9478,-140.9909 275.4478,-150.991 278.9478,-140.991 271.9478,-140.9909"/>
</g>
<!-- TableRoutingModule -->
<g id="node3" class="node">
<title>TableRoutingModule</title>
<polygon fill="#8dd3c7" stroke="#000000" points="234.0408,-122 231.0408,-126 210.0408,-126 207.0408,-122 97.9592,-122 97.9592,-86 234.0408,-86 234.0408,-122"/>
<text text-anchor="middle" x="166" y="-99.8" font-family="Times,serif" font-size="14.00" fill="#000000">TableRoutingModule</text>
</g>
<!-- TableRoutingModule&#45;&gt;TableModule -->
<g id="edge2" class="edge">
<title>TableRoutingModule&#45;&gt;TableModule</title>
<path fill="none" stroke="#000000" d="M217.7795,-122.1061C217.7795,-122.1061 217.7795,-140.991 217.7795,-140.991"/>
<polygon fill="#000000" stroke="#000000" points="214.2795,-140.9909 217.7795,-150.991 221.2795,-140.991 214.2795,-140.9909"/>
</g>
</g>
</svg>
