<?xml version="1.0" encoding="UTF-8" standalone="no"?>
<!DOCTYPE svg PUBLIC "-//W3C//DTD SVG 1.1//EN"
 "http://www.w3.org/Graphics/SVG/1.1/DTD/svg11.dtd">
<!-- Generated by graphviz version 2.40.1 (20161225.0304)
 -->
<!-- Title: dependencies Pages: 1 -->
<svg width="1693pt" height="360pt"
 viewBox="0.00 0.00 1693.00 360.00" xmlns="http://www.w3.org/2000/svg" xmlns:xlink="http://www.w3.org/1999/xlink">
<g id="graph0" class="graph" transform="scale(1 1) rotate(0) translate(4 356)">
<title>dependencies</title>
<polygon fill="#ffffff" stroke="transparent" points="-4,4 -4,-356 1689,-356 1689,4 -4,4"/>
<text text-anchor="start" x="821.5091" y="-42.4" font-family="sans-serif" font-weight="bold" font-size="14.00" fill="#000000">Legend</text>
<polygon fill="#ffffb3" stroke="transparent" points="608.5,-10 608.5,-30 628.5,-30 628.5,-10 608.5,-10"/>
<text text-anchor="start" x="632.129" y="-15.4" font-family="sans-serif" font-size="14.00" fill="#000000"> &#160;Declarations</text>
<polygon fill="#8dd3c7" stroke="transparent" points="721.5,-10 721.5,-30 741.5,-30 741.5,-10 721.5,-10"/>
<text text-anchor="start" x="745.2251" y="-15.4" font-family="sans-serif" font-size="14.00" fill="#000000"> &#160;Module</text>
<polygon fill="#80b1d3" stroke="transparent" points="807.5,-10 807.5,-30 827.5,-30 827.5,-10 807.5,-10"/>
<text text-anchor="start" x="831.2812" y="-15.4" font-family="sans-serif" font-size="14.00" fill="#000000"> &#160;Bootstrap</text>
<polygon fill="#fdb462" stroke="transparent" points="904.5,-10 904.5,-30 924.5,-30 924.5,-10 904.5,-10"/>
<text text-anchor="start" x="928.1732" y="-15.4" font-family="sans-serif" font-size="14.00" fill="#000000"> &#160;Providers</text>
<polygon fill="#fb8072" stroke="transparent" points="1000.5,-10 1000.5,-30 1020.5,-30 1020.5,-10 1000.5,-10"/>
<text text-anchor="start" x="1024.2258" y="-15.4" font-family="sans-serif" font-size="14.00" fill="#000000"> &#160;Exports</text>
<g id="clust1" class="cluster">
<title>cluster_AppModule</title>
<polygon fill="none" stroke="#000000" stroke-dasharray="1,5" points="420,-146 420,-344 976,-344 976,-146 420,-146"/>
</g>
<g id="clust2" class="cluster">
<title>cluster_AppModule_declarations</title>
<polygon fill="none" stroke="#000000" points="694,-154 694,-206 968,-206 968,-154 694,-154"/>
</g>
<g id="clust5" class="cluster">
<title>cluster_AppModule_imports</title>
<polygon fill="none" stroke="#000000" points="428,-154 428,-206 686,-206 686,-154 428,-154"/>
</g>
<g id="clust7" class="cluster">
<title>cluster_AppModule_bootstrap</title>
<polygon fill="none" stroke="#000000" points="629,-284 629,-336 753,-336 753,-284 629,-284"/>
</g>
<g id="clust15" class="cluster">
<title>cluster_ChartsModule</title>
<polygon fill="none" stroke="#000000" stroke-dasharray="1,5" points="8,-70 8,-138 1009,-138 1009,-70 8,-70"/>
</g>
<g id="clust16" class="cluster">
<title>cluster_ChartsModule_declarations</title>
<polygon fill="none" stroke="#000000" points="364,-78 364,-130 1001,-130 1001,-78 364,-78"/>
</g>
<g id="clust21" class="cluster">
<title>cluster_ChartsModule_imports</title>
<polygon fill="none" stroke="#000000" points="198,-78 198,-130 356,-130 356,-78 198,-78"/>
</g>
<g id="clust22" class="cluster">
<title>cluster_ChartsModule_exports</title>
<polygon fill="none" stroke="#000000" points="16,-78 16,-130 190,-130 190,-78 16,-78"/>
</g>
<g id="clust31" class="cluster">
<title>cluster_MapModule</title>
<polygon fill="none" stroke="#000000" stroke-dasharray="1,5" points="1017,-70 1017,-206 1337,-206 1337,-70 1017,-70"/>
</g>
<g id="clust32" class="cluster">
<title>cluster_MapModule_declarations</title>
<polygon fill="none" stroke="#000000" points="1179,-78 1179,-130 1329,-130 1329,-78 1179,-78"/>
</g>
<g id="clust34" class="cluster">
<title>cluster_MapModule_imports</title>
<polygon fill="none" stroke="#000000" points="1025,-78 1025,-130 1171,-130 1171,-78 1025,-78"/>
</g>
<g id="clust44" class="cluster">
<title>cluster_TableModule</title>
<polygon fill="none" stroke="#000000" stroke-dasharray="1,5" points="1345,-70 1345,-206 1677,-206 1677,-70 1345,-70"/>
</g>
<g id="clust45" class="cluster">
<title>cluster_TableModule_declarations</title>
<polygon fill="none" stroke="#000000" points="1513,-78 1513,-130 1669,-130 1669,-78 1513,-78"/>
</g>
<g id="clust47" class="cluster">
<title>cluster_TableModule_imports</title>
<polygon fill="none" stroke="#000000" points="1353,-78 1353,-130 1505,-130 1505,-78 1353,-78"/>
</g>
<!-- AppComponent -->
<g id="node1" class="node">
<title>AppComponent</title>
<polygon fill="#ffffb3" stroke="#000000" points="959.9399,-198 854.0601,-198 854.0601,-162 959.9399,-162 959.9399,-198"/>
<text text-anchor="middle" x="907" y="-175.8" font-family="Times,serif" font-size="14.00" fill="#000000">AppComponent</text>
</g>
<!-- AppModule -->
<g id="node3" class="node">
<title>AppModule</title>
<polygon fill="#8dd3c7" stroke="#000000" points="732.6571,-263 729.6571,-267 708.6571,-267 705.6571,-263 649.3429,-263 649.3429,-227 732.6571,-227 732.6571,-263"/>
<text text-anchor="middle" x="691" y="-240.8" font-family="Times,serif" font-size="14.00" fill="#000000">AppModule</text>
</g>
<!-- AppComponent&#45;&gt;AppModule -->
<g id="edge1" class="edge">
<title>AppComponent&#45;&gt;AppModule</title>
<path fill="none" stroke="#000000" d="M907,-198.1061C907,-217.3391 907,-245 907,-245 907,-245 742.9031,-245 742.9031,-245"/>
<polygon fill="#000000" stroke="#000000" points="742.9031,-241.5001 732.9031,-245 742.9031,-248.5001 742.9031,-241.5001"/>
</g>
<!-- MainNavComponent -->
<g id="node2" class="node">
<title>MainNavComponent</title>
<polygon fill="#ffffb3" stroke="#000000" points="836.2036,-198 701.7964,-198 701.7964,-162 836.2036,-162 836.2036,-198"/>
<text text-anchor="middle" x="769" y="-175.8" font-family="Times,serif" font-size="14.00" fill="#000000">MainNavComponent</text>
</g>
<!-- MainNavComponent&#45;&gt;AppModule -->
<g id="edge2" class="edge">
<title>MainNavComponent&#45;&gt;AppModule</title>
<path fill="none" stroke="#000000" d="M717.3633,-198.1061C717.3633,-198.1061 717.3633,-216.991 717.3633,-216.991"/>
<polygon fill="#000000" stroke="#000000" points="713.8633,-216.9909 717.3633,-226.991 720.8633,-216.991 713.8633,-216.9909"/>
</g>
<!-- AppComponent  -->
<g id="node6" class="node">
<title>AppComponent </title>
<polygon fill="#80b1d3" stroke="#000000" points="745.439,-328 636.561,-328 636.561,-292 745.439,-292 745.439,-328"/>
<text text-anchor="middle" x="691" y="-305.8" font-family="Times,serif" font-size="14.00" fill="#000000">AppComponent </text>
</g>
<!-- AppModule&#45;&gt;AppComponent  -->
<g id="edge5" class="edge">
<title>AppModule&#45;&gt;AppComponent </title>
<path fill="none" stroke="#000000" stroke-dasharray="1,5" d="M691,-263.1061C691,-263.1061 691,-281.991 691,-281.991"/>
<polygon fill="#000000" stroke="#000000" points="687.5001,-281.9909 691,-291.991 694.5001,-281.991 687.5001,-281.9909"/>
</g>
<!-- AppRoutingModule -->
<g id="node4" class="node">
<title>AppRoutingModule</title>
<polygon fill="#8dd3c7" stroke="#000000" points="678.2744,-198 675.2744,-202 654.2744,-202 651.2744,-198 549.7256,-198 549.7256,-162 678.2744,-162 678.2744,-198"/>
<text text-anchor="middle" x="614" y="-175.8" font-family="Times,serif" font-size="14.00" fill="#000000">AppRoutingModule</text>
</g>
<!-- AppRoutingModule&#45;&gt;AppModule -->
<g id="edge3" class="edge">
<title>AppRoutingModule&#45;&gt;AppModule</title>
<path fill="none" stroke="#000000" d="M663.7795,-198.1061C663.7795,-198.1061 663.7795,-216.991 663.7795,-216.991"/>
<polygon fill="#000000" stroke="#000000" points="660.2795,-216.9909 663.7795,-226.991 667.2795,-216.991 660.2795,-216.9909"/>
</g>
<!-- ChartsModule -->
<g id="node5" class="node">
<title>ChartsModule</title>
<polygon fill="#8dd3c7" stroke="#000000" points="532.0968,-198 529.0968,-202 508.0968,-202 505.0968,-198 435.9032,-198 435.9032,-162 532.0968,-162 532.0968,-198"/>
<text text-anchor="middle" x="484" y="-175.8" font-family="Times,serif" font-size="14.00" fill="#000000">ChartsModule</text>
</g>
<!-- ChartsModule&#45;&gt;AppModule -->
<g id="edge4" class="edge">
<title>ChartsModule&#45;&gt;AppModule</title>
<path fill="none" stroke="#000000" d="M484,-198.1061C484,-217.3391 484,-245 484,-245 484,-245 639.1105,-245 639.1105,-245"/>
<polygon fill="#000000" stroke="#000000" points="639.1105,-248.5001 649.1105,-245 639.1104,-241.5001 639.1105,-248.5001"/>
</g>
<!-- LinearGaugeComponent  -->
<g id="node12" class="node">
<title>LinearGaugeComponent </title>
<polygon fill="#fb8072" stroke="#000000" points="181.9012,-122 24.0988,-122 24.0988,-86 181.9012,-86 181.9012,-122"/>
<text text-anchor="middle" x="103" y="-99.8" font-family="Times,serif" font-size="14.00" fill="#000000">LinearGaugeComponent </text>
</g>
<!-- ChartsModule&#45;&gt;LinearGaugeComponent  -->
<g id="edge11" class="edge">
<title>ChartsModule&#45;&gt;LinearGaugeComponent </title>
<path fill="none" stroke="#000000" stroke-dasharray="5,2" d="M435.7461,-186C333.2243,-186 103,-186 103,-186 103,-186 103,-132.1985 103,-132.1985"/>
<polygon fill="#000000" stroke="#000000" points="106.5001,-132.1984 103,-122.1985 99.5001,-132.1985 106.5001,-132.1984"/>
</g>
<!-- LinearGaugeComponent -->
<g id="node7" class="node">
<title>LinearGaugeComponent</title>
<polygon fill="#ffffb3" stroke="#000000" points="993.4017,-122 838.5983,-122 838.5983,-86 993.4017,-86 993.4017,-122"/>
<text text-anchor="middle" x="916" y="-99.8" font-family="Times,serif" font-size="14.00" fill="#000000">LinearGaugeComponent</text>
</g>
<!-- LinearGaugeComponent&#45;&gt;ChartsModule -->
<g id="edge6" class="edge">
<title>LinearGaugeComponent&#45;&gt;ChartsModule</title>
<path fill="none" stroke="#000000" d="M846.54,-122.0439C846.54,-134.5633 846.54,-149 846.54,-149 846.54,-149 506.307,-149 506.307,-149 506.307,-149 506.307,-151.9672 506.307,-151.9672"/>
<polygon fill="#000000" stroke="#000000" points="502.8071,-151.9671 506.307,-161.9672 509.8071,-151.9672 502.8071,-151.9671"/>
</g>
<!-- PieChartComponent -->
<g id="node8" class="node">
<title>PieChartComponent</title>
<polygon fill="#ffffb3" stroke="#000000" points="821.323,-122 690.677,-122 690.677,-86 821.323,-86 821.323,-122"/>
<text text-anchor="middle" x="756" y="-99.8" font-family="Times,serif" font-size="14.00" fill="#000000">PieChartComponent</text>
</g>
<!-- PieChartComponent&#45;&gt;ChartsModule -->
<g id="edge7" class="edge">
<title>PieChartComponent&#45;&gt;ChartsModule</title>
<path fill="none" stroke="#000000" d="M696.3685,-122.2434C696.3685,-129.4297 696.3685,-136 696.3685,-136 696.3685,-136 482.8552,-136 482.8552,-136 482.8552,-136 482.8552,-151.8495 482.8552,-151.8495"/>
<polygon fill="#000000" stroke="#000000" points="479.3553,-151.8494 482.8552,-161.8495 486.3553,-151.8495 479.3553,-151.8494"/>
</g>
<!-- PieGridComponent -->
<g id="node9" class="node">
<title>PieGridComponent</title>
<polygon fill="#ffffb3" stroke="#000000" points="672.3781,-122 547.6219,-122 547.6219,-86 672.3781,-86 672.3781,-122"/>
<text text-anchor="middle" x="610" y="-99.8" font-family="Times,serif" font-size="14.00" fill="#000000">PieGridComponent</text>
</g>
<!-- PieGridComponent&#45;&gt;ChartsModule -->
<g id="edge8" class="edge">
<title>PieGridComponent&#45;&gt;ChartsModule</title>
<path fill="none" stroke="#000000" d="M547.585,-104C542.8134,-104 539.8047,-104 539.8047,-104 539.8047,-104 539.8047,-180 539.8047,-180 539.8047,-180 539.0752,-180 539.0752,-180"/>
<polygon fill="#000000" stroke="#000000" points="542.5093,-176.5002 532.5092,-180 542.5092,-183.5002 542.5093,-176.5002"/>
</g>
<!-- VerticalChartComponent -->
<g id="node10" class="node">
<title>VerticalChartComponent</title>
<polygon fill="#ffffb3" stroke="#000000" points="529.5183,-122 372.4817,-122 372.4817,-86 529.5183,-86 529.5183,-122"/>
<text text-anchor="middle" x="451" y="-99.8" font-family="Times,serif" font-size="14.00" fill="#000000">VerticalChartComponent</text>
</g>
<!-- VerticalChartComponent&#45;&gt;ChartsModule -->
<g id="edge9" class="edge">
<title>VerticalChartComponent&#45;&gt;ChartsModule</title>
<path fill="none" stroke="#000000" d="M459.4034,-122.0109C459.4034,-122.0109 459.4034,-151.855 459.4034,-151.855"/>
<polygon fill="#000000" stroke="#000000" points="455.9035,-151.8549 459.4034,-161.855 462.9035,-151.855 455.9035,-151.8549"/>
</g>
<!-- ChartsRoutingModule -->
<g id="node11" class="node">
<title>ChartsRoutingModule</title>
<polygon fill="#8dd3c7" stroke="#000000" points="347.7148,-122 344.7148,-126 323.7148,-126 320.7148,-122 206.2852,-122 206.2852,-86 347.7148,-86 347.7148,-122"/>
<text text-anchor="middle" x="277" y="-99.8" font-family="Times,serif" font-size="14.00" fill="#000000">ChartsRoutingModule</text>
</g>
<!-- ChartsRoutingModule&#45;&gt;ChartsModule -->
<g id="edge10" class="edge">
<title>ChartsRoutingModule&#45;&gt;ChartsModule</title>
<path fill="none" stroke="#000000" d="M277,-122.0267C277,-142.7672 277,-174 277,-174 277,-174 425.7289,-174 425.7289,-174"/>
<polygon fill="#000000" stroke="#000000" points="425.729,-177.5001 435.7289,-174 425.7289,-170.5001 425.729,-177.5001"/>
</g>
<!-- DataMapComponent -->
<g id="node13" class="node">
<title>DataMapComponent</title>
<polygon fill="#ffffb3" stroke="#000000" points="1320.9187,-122 1187.0813,-122 1187.0813,-86 1320.9187,-86 1320.9187,-122"/>
<text text-anchor="middle" x="1254" y="-99.8" font-family="Times,serif" font-size="14.00" fill="#000000">DataMapComponent</text>
</g>
<!-- MapModule -->
<g id="node14" class="node">
<title>MapModule</title>
<polygon fill="#8dd3c7" stroke="#000000" points="1218.7093,-198 1215.7093,-202 1194.7093,-202 1191.7093,-198 1133.2907,-198 1133.2907,-162 1218.7093,-162 1218.7093,-198"/>
<text text-anchor="middle" x="1176" y="-175.8" font-family="Times,serif" font-size="14.00" fill="#000000">MapModule</text>
</g>
<!-- DataMapComponent&#45;&gt;MapModule -->
<g id="edge12" class="edge">
<title>DataMapComponent&#45;&gt;MapModule</title>
<path fill="none" stroke="#000000" d="M1202.9477,-122.0109C1202.9477,-122.0109 1202.9477,-151.855 1202.9477,-151.855"/>
<polygon fill="#000000" stroke="#000000" points="1199.4478,-151.8549 1202.9477,-161.855 1206.4478,-151.855 1199.4478,-151.8549"/>
</g>
<!-- MapRoutingModule -->
<g id="node15" class="node">
<title>MapRoutingModule</title>
<polygon fill="#8dd3c7" stroke="#000000" points="1163.3272,-122 1160.3272,-126 1139.3272,-126 1136.3272,-122 1032.6728,-122 1032.6728,-86 1163.3272,-86 1163.3272,-122"/>
<text text-anchor="middle" x="1098" y="-99.8" font-family="Times,serif" font-size="14.00" fill="#000000">MapRoutingModule</text>
</g>
<!-- MapRoutingModule&#45;&gt;MapModule -->
<g id="edge13" class="edge">
<title>MapRoutingModule&#45;&gt;MapModule</title>
<path fill="none" stroke="#000000" d="M1148.2795,-122.0109C1148.2795,-122.0109 1148.2795,-151.855 1148.2795,-151.855"/>
<polygon fill="#000000" stroke="#000000" points="1144.7795,-151.8549 1148.2795,-161.855 1151.7795,-151.855 1144.7795,-151.8549"/>
</g>
<!-- DataTableComponent -->
<g id="node16" class="node">
<title>DataTableComponent</title>
<polygon fill="#ffffb3" stroke="#000000" points="1660.6317,-122 1521.3683,-122 1521.3683,-86 1660.6317,-86 1660.6317,-122"/>
<text text-anchor="middle" x="1591" y="-99.8" font-family="Times,serif" font-size="14.00" fill="#000000">DataTableComponent</text>
</g>
<!-- TableModule -->
<g id="node17" class="node">
<title>TableModule</title>
<polygon fill="#8dd3c7" stroke="#000000" points="1555.9232,-198 1552.9232,-202 1531.9232,-202 1528.9232,-198 1464.0768,-198 1464.0768,-162 1555.9232,-162 1555.9232,-198"/>
<text text-anchor="middle" x="1510" y="-175.8" font-family="Times,serif" font-size="14.00" fill="#000000">TableModule</text>
</g>
<!-- DataTableComponent&#45;&gt;TableModule -->
<g id="edge14" class="edge">
<title>DataTableComponent&#45;&gt;TableModule</title>
<path fill="none" stroke="#000000" d="M1538.4478,-122.0109C1538.4478,-122.0109 1538.4478,-151.855 1538.4478,-151.855"/>
<polygon fill="#000000" stroke="#000000" points="1534.9478,-151.8549 1538.4478,-161.855 1541.9478,-151.855 1534.9478,-151.8549"/>
</g>
<!-- TableRoutingModule -->
<g id="node18" class="node">
<title>TableRoutingModule</title>
<polygon fill="#8dd3c7" stroke="#000000" points="1497.0408,-122 1494.0408,-126 1473.0408,-126 1470.0408,-122 1360.9592,-122 1360.9592,-86 1497.0408,-86 1497.0408,-122"/>
<text text-anchor="middle" x="1429" y="-99.8" font-family="Times,serif" font-size="14.00" fill="#000000">TableRoutingModule</text>
</g>
<!-- TableRoutingModule&#45;&gt;TableModule -->
<g id="edge15" class="edge">
<title>TableRoutingModule&#45;&gt;TableModule</title>
<path fill="none" stroke="#000000" d="M1480.7795,-122.0109C1480.7795,-122.0109 1480.7795,-151.855 1480.7795,-151.855"/>
<polygon fill="#000000" stroke="#000000" points="1477.2795,-151.8549 1480.7795,-161.855 1484.2795,-151.855 1477.2795,-151.8549"/>
</g>
</g>
</svg>
